<?xml version="1.0" standalone="no"?>
<!DOCTYPE svg PUBLIC "-//W3C//DTD SVG 20010904//EN"
 "http://www.w3.org/TR/2001/REC-SVG-20010904/DTD/svg10.dtd">
<svg version="1.0" xmlns="http://www.w3.org/2000/svg"
 width="700.000000pt" height="700.000000pt" viewBox="0 0 700.000000 700.000000"
 preserveAspectRatio="xMidYMid meet">
<metadata>
Created by potrace 1.11, written by Peter Selinger 2001-2013
</metadata>
<g transform="translate(0.000000,700.000000) scale(0.100000,-0.100000)"
fill="#000000" stroke="none">
<path d="M0 3500 l0 -3500 3500 0 3500 0 0 3500 0 3500 -3500 0 -3500 0 0
-3500z m6457 2956 c6 -6 6 -5907 0 -5913 -3 -2 -1335 -5 -2961 -6 l-2956 -2 0
135 c0 172 0 5457 0 5647 l0 143 228 2 c367 5 5684 -1 5689 -6z"/>
<path d="M1229 5788 c-1 -2 -2 -564 -3 -1250 -1 -828 2 -1248 9 -1249 5 -1
771 -2 1700 -3 1555 -2 1695 -4 1754 -19 191 -51 348 -210 407 -412 23 -80 24
-238 1 -325 -52 -195 -194 -347 -386 -412 l-66 -22 -1305 -1 -1305 0 -2 275
c-1 151 -2 289 -2 305 l-1 31 -397 0 c-219 0 -400 -3 -403 -7 -4 -6 -5 -1456
-1 -1482 0 -4 767 -7 1704 -7 1816 1 1783 0 1967 50 613 164 1049 771 1034
1440 -2 95 -11 196 -18 208 -2 4 -6 30 -10 57 -3 28 -13 73 -22 100 -8 28 -17
59 -20 71 -8 40 -76 200 -117 274 -81 148 -225 324 -341 417 l-38 31 33 64
c62 116 106 247 131 388 14 82 18 314 7 375 -5 26 -11 61 -13 78 -11 89 -52
218 -106 331 -50 104 -62 124 -136 221 -200 261 -465 418 -785 464 -55 8
-3267 16 -3270 9z m3164 -859 c107 -7 229 -91 284 -195 98 -186 46 -415 -119
-527 -104 -70 -31 -67 -1343 -67 l-1182 0 0 395 0 394 71 3 c87 4 2232 0 2289
-3z"/>
</g>
</svg>
