<svg id="Layer_1" data-name="Layer 1" xmlns="http://www.w3.org/2000/svg" xmlns:xlink="http://www.w3.org/1999/xlink" viewBox="0 0 234 131.49"><defs><style>.cls-1{fill:url(#linear-gradient);}</style><linearGradient id="linear-gradient" x1="0.78" y1="132.84" x2="233.22" y2="-1.35" gradientUnits="userSpaceOnUse"><stop offset="0" stop-color="lime"/><stop offset="0.15" stop-color="#00e73d"/><stop offset="0.32" stop-color="#00cf77"/><stop offset="0.48" stop-color="#00bca8"/><stop offset="0.64" stop-color="#00adce"/><stop offset="0.78" stop-color="#00a2e9"/><stop offset="0.9" stop-color="#009bf9"/><stop offset="1" stop-color="#09f"/></linearGradient></defs><title>BenLussierLogo_RGB</title><path id="BL_Logo_-_Small" data-name="BL Logo - Small" class="cls-1" d="M217.43,112.18h-3.69l-12.59-11h-9.94v11h-2.81V83h16c7.91,0,11.91,4.54,12,9.07.05,4.74-3.85,8.91-11.81,8.91ZM191.22,99h12.9c6.35,0,9.16-2.87,9.21-7,.05-3.41-2.86-6.95-8.9-6.95H191.22Zm-32-2.54H180.5v2H159.17V110h23v2.16H156.41V83h25.13v2.12H159.17Zm-13.53,15.69V83h2.76v29.13Zm-9.36-23.51c-2.65-3.41-6.92-3.91-11-4-4.27,0-11,1.25-11,5.91,0,3.7,5,4.58,11.13,5.49,7,1.08,14.31,2.08,14.31,8.36-.05,6.58-8.32,8.16-14.41,8.16-5.67,0-12.12-1.87-14.93-6.33l2.5-1c2.24,3.54,8,5.28,12.43,5.28s11.6-1,11.6-6.16c.05-4.37-6-5.33-12-6.24-6.66-1-13.47-2.12-13.47-7.49-.16-6.16,7.86-8.07,13.84-8.07,5.2,0,9.73.67,13.32,5Zm-32.93,0c-2.65-3.41-6.92-3.91-11-4-4.27,0-11,1.25-11,5.91,0,3.7,5,4.58,11.13,5.49,7,1.08,14.31,2.08,14.31,8.36-.05,6.58-8.32,8.16-14.41,8.16-5.67,0-12.12-1.87-14.93-6.33l2.5-1c2.24,3.54,8,5.28,12.43,5.28s11.6-1,11.6-6.16c.05-4.37-6-5.33-12-6.24-6.66-1-13.47-2.12-13.47-7.49-.16-6.16,7.86-8.07,13.84-8.07,5.2,0,9.73.67,13.32,5ZM72.09,83v18.1c0,15.23-27.88,15.27-27.88,0V83H47v18.1c0,12.53,22.37,12.48,22.37,0V83ZM20.54,83v27H41v2.12H17.73V83ZM211.1,19.32V67L161.4,19.32h-5.76V46.87h5.72V27.09l49.76,47.69h5.34V19.32ZM142,69.06H92.31V46.87h41.15V41.5H86.59V74.78h60.83v-14H142ZM86.59,24.69h60.83V19.32H86.59ZM68.9,43.07a13.91,13.91,0,0,0-9.72-23.75H17.53V46.87H62a11.09,11.09,0,0,1,0,22.18H22.9V60.83H17.53v14H62a16.63,16.63,0,0,0,7-31.71ZM59.19,41.5H22.9V24.69H59.19a8.41,8.41,0,0,1,0,16.82Zm174.81,90H0V0H234ZM5.37,126.12H228.63V5.37H5.37Z"/></svg>