<?xml version="1.0" encoding="utf-8"?>
<!-- Generator: Adobe Illustrator 22.0.1, SVG Export Plug-In . SVG Version: 6.00 Build 0)  -->
<svg version="1.1" id="Layer_1" xmlns="http://www.w3.org/2000/svg" xmlns:xlink="http://www.w3.org/1999/xlink" x="0px" y="0px"
	 viewBox="0 0 288 72" style="enable-background:new 0 0 288 72;" xml:space="preserve">
<style type="text/css">
	.st0{fill:#E6E6E6;}
</style>
<path class="st0" d="M6,40h4.6l3,8.3c0.4,1.1,0.7,2.3,1.1,3.4h0.1c0.4-1.1,0.7-2.3,1.1-3.4l2.9-8.3h4.6v18.6h-3.8v-6.8
	c0-1.8,0.3-4.5,0.5-6.3H20l-1.5,4.4L15.8,57h-2.3l-2.6-7.1l-1.5-4.4H9.2c0.2,1.8,0.5,4.5,0.5,6.3v6.8H6V40z M33.5,40h11.7v3.5h-7.5
	v3.7H44v3.5h-6.3v4.3h7.7v3.5h-12V40z M54,49.5c0-6.2,4.1-9.8,8.8-9.8c2.4,0,4.3,1.1,5.6,2.4l-2.2,2.7c-0.9-0.9-1.9-1.5-3.3-1.5
	c-2.6,0-4.6,2.3-4.6,6c0,3.8,1.8,6.1,4.5,6.1c1.5,0,2.7-0.8,3.6-1.7l2.2,2.6c-1.5,1.8-3.6,2.7-6,2.7C57.9,59,54,55.7,54,49.5z
	 M77.2,40h4.2v7.2h6.4V40H92v18.6h-4.2v-7.8h-6.4v7.8h-4.2V40z M112,58.7h4.5L110.6,40h-5l-5.8,18.6h4.3l1.2-4.4h5.7L112,58.7z
	 M106,51l0.4-1.7c0.5-1.9,1-4,1.5-6h0.1c0.5,1.9,1,4.1,1.5,6L110,51H106z M125.8,43.6h-5.1V40h14.5v3.5H130v15.1h-4.2V43.6z
	 M158.5,58.7l-4.2-7.4c2-0.9,3.3-2.6,3.3-5.4c0-4.4-3.2-5.8-7.2-5.8h-6.7v18.6h4.2V52h2.3l3.6,6.7H158.5z M147.9,43.4h2.2
	c2.2,0,3.4,0.6,3.4,2.5c0,1.8-1.2,2.8-3.4,2.8h-2.2V43.4z M174.5,39.7c-5,0-8.5,3.5-8.5,9.6s3.4,9.7,8.5,9.7c5,0,8.5-3.6,8.5-9.7
	C183,43.2,179.5,39.7,174.5,39.7z M174.5,55.4c-2.5,0-4.1-2.4-4.1-6.1s1.6-5.9,4.1-5.9c2.5,0,4.1,2.2,4.1,5.9S177,55.4,174.5,55.4z
	 M192.2,40h4.3l4.9,9.3l1.8,4.1h0.1c-0.2-2-0.5-4.6-0.5-6.8V40h4v18.6h-4.3l-4.9-9.3l-1.8-4.1h-0.1c0.2,2.1,0.5,4.5,0.5,6.7v6.6h-4
	V40z M216.9,40h4.2v18.6h-4.2V40z M230.3,49.5c0-6.2,4.1-9.8,8.8-9.8c2.4,0,4.3,1.1,5.6,2.4l-2.2,2.7c-0.9-0.9-1.9-1.5-3.3-1.5
	c-2.6,0-4.6,2.3-4.6,6c0,3.8,1.8,6.1,4.5,6.1c1.5,0,2.7-0.8,3.6-1.7l2.2,2.6c-1.5,1.8-3.6,2.7-6,2.7C234.3,59,230.3,55.7,230.3,49.5
	z M251.5,56.3l2.4-2.9c1.3,1.2,3,1.9,4.6,1.9c1.8,0,2.6-0.7,2.6-1.8c0-1.2-1.1-1.5-2.7-2.2l-2.4-1c-1.9-0.8-3.8-2.4-3.8-5.1
	c0-3.1,2.8-5.5,6.6-5.5c2.1,0,4.4,0.8,6,2.4l-2.1,2.7c-1.2-0.9-2.4-1.5-3.9-1.5c-1.5,0-2.4,0.6-2.4,1.7c0,1.1,1.2,1.6,2.8,2.2l2.4,1
	c2.3,0.9,3.7,2.4,3.7,5.1c0,3.1-2.6,5.8-7,5.8C256,59,253.4,58.1,251.5,56.3z M280.1,44.4c0-1.2-0.8-1.8-1.9-1.8
	c-1.1,0-1.8,0.5-2.6,1.3l-2.3-2.1c1.3-1.5,3.2-2.6,5.4-2.6c3.1,0,5.4,1.5,5.4,4.9c0,3.5-4.3,4.6-4,8h-3.7
	C275.9,48.1,280.1,46.5,280.1,44.4z M275.8,56.4c0-1.5,1.1-2.6,2.5-2.6c1.5,0,2.5,1.2,2.5,2.6c0,1.5-1.1,2.6-2.5,2.6
	C276.9,59,275.8,57.8,275.8,56.4z M42,16.3h1.1l2,9.2c0.4,1.7,0.7,3.4,1.1,5.1h0.1c0.4-1.7,0.8-3.4,1.2-5.1l2.5-9.2H51l2.5,9.2
	c0.4,1.7,0.8,3.4,1.2,5.1h0.1c0.4-1.7,0.7-3.4,1-5.1l2-9.2h1.1L55.4,32h-1.2l-2.9-10.8c-0.3-1.2-0.6-2.3-0.8-3.5h-0.1
	c-0.3,1.2-0.6,2.3-0.9,3.5L46.7,32h-1.2L42,16.3z M65.5,16.3h1.1v6.9H75v-6.9h1.1V32H75v-7.9h-8.4V32h-1.1V16.3z M93.1,32h1.2
	l-5.5-15.7h-1.1L82.2,32h1.1l1.9-5.4h6.2L93.1,32z M85.4,25.7l1-2.9c0.6-1.9,1.2-3.5,1.7-5.4h0.1c0.6,1.9,1.1,3.6,1.7,5.4l1,2.9
	H85.4z M97.7,16.3v0.9h5V32h1.1V17.2h5v-0.9H97.7z M127.2,16.2h2v15.6h-2V16.2z M135.8,29.8l1.2-1.4c1.1,1.2,2.7,1.9,4.3,1.9
	c2,0,3.3-1,3.3-2.5c0-1.6-1.1-2.1-2.6-2.7l-2.2-1c-1.5-0.6-3.2-1.7-3.2-4c0-2.4,2.1-4.1,4.9-4.1c1.9,0,3.5,0.8,4.6,1.9l-1.1,1.3
	c-1-0.9-2.1-1.5-3.5-1.5c-1.8,0-2.9,0.9-2.9,2.3c0,1.5,1.4,2.1,2.6,2.6l2.2,1c1.8,0.8,3.2,1.9,3.2,4.2c0,2.5-2,4.4-5.3,4.4
	C139.1,32.1,137.2,31.2,135.8,29.8z"/>
<g>
</g>
<g>
</g>
<g>
</g>
<g>
</g>
<g>
</g>
<g>
</g>
<g>
</g>
<g>
</g>
<g>
</g>
<g>
</g>
<g>
</g>
</svg>
